<svg width="37" height="35" fill="none" xmlns="http://www.w3.org/2000/svg"><path d="M1.586.581C.941.754.522 1.329.527 2.034c.004.592.271 1.032.799 1.317.24.13.318.134 2.852.151 1.433.01 2.605.027 2.605.037 0 .093 3.839 18.861 3.892 19.027.367 1.149 1.424 2.282 2.56 2.743.883.359.624.35 9.304.331l7.955-.017.432-.146c1.512-.511 2.508-1.473 2.997-2.893.061-.179.67-3.204 1.353-6.722.921-4.749 1.232-6.464 1.206-6.658-.065-.495-.367-.914-.839-1.165-.208-.111-.651-.115-12.563-.131l-12.348-.016-.032-.138c-.018-.076-.311-1.507-.65-3.181-.36-1.773-.668-3.14-.738-3.277-.16-.315-.518-.601-.89-.712C8.005.46 2.046.457 1.586.581m31.57 10.473c-.019.076-.492 2.506-1.053 5.401-1.073 5.542-1.062 5.498-1.466 5.837-.426.359.054.34-8.337.338-7.339-.001-7.728-.007-7.964-.114a1.574 1.574 0 0 1-.724-.697c-.052-.113-.572-2.55-1.154-5.416-.582-2.866-1.073-5.273-1.091-5.349l-.034-.139H33.19l-.034.139M13.297 28.649c-1.712.415-2.704 2.254-2.108 3.908.216.598.753 1.227 1.33 1.557.918.526 2.112.511 3.047-.037.4-.235.946-.851 1.148-1.296 1.024-2.259-1.007-4.715-3.417-4.132m16.642-.033c-1.655.339-2.706 1.903-2.368 3.525.25 1.195 1.269 2.149 2.496 2.333a2.986 2.986 0 0 0 3.323-2.194c.268-1.027-.023-2.07-.792-2.838-.703-.702-1.72-1.019-2.659-.826" fill-rule="evenodd" fill="#000"/></svg>