<svg width="33" height="36" fill="none" xmlns="http://www.w3.org/2000/svg"><path d="M15.648.552c-2.713.308-5.004 1.678-6.471 3.87-.599.894-1.017 1.904-1.264 3.058-.179.83-.18 2.464-.004 3.282.416 1.922 1.301 3.454 2.757 4.766 1.067.963 2.51 1.687 4.032 2.023.739.163 2.278.203 3.107.081 3.638-.535 6.5-3.233 7.285-6.866.177-.822.176-2.454-.003-3.286-.669-3.119-2.833-5.544-5.819-6.522-1.079-.353-2.591-.523-3.62-.406m1.849 3.049c2.556.447 4.493 2.508 4.715 5.016a5.59 5.59 0 0 1-.549 2.954c-.302.598-.493.864-.998 1.39a5.613 5.613 0 0 1-3.285 1.699c-.661.1-1.102.1-1.76-.001-1.245-.191-2.243-.686-3.155-1.565-.735-.709-1.214-1.495-1.489-2.444-.74-2.557.473-5.291 2.884-6.496a5.838 5.838 0 0 1 3.637-.553m-9.16 18.294c-2.965.313-5.596 2.113-6.908 4.727a9.456 9.456 0 0 0-.777 2.238c-.112.545-.124.78-.144 2.941-.025 2.644-.014 2.746.349 3.169.294.344.68.525 1.123.525.618 0 1.091-.29 1.358-.834l.155-.313.031-2.421c.035-2.754.045-2.83.522-3.819.684-1.421 1.837-2.439 3.349-2.954.88-.301.677-.294 9.105-.294 8.434 0 8.224-.007 9.11.295 1.512.516 2.659 1.529 3.344 2.953.477.989.487 1.065.522 3.819l.032 2.421.154.313a1.487 1.487 0 0 0 2.481.309c.363-.423.374-.525.349-3.169-.02-2.161-.032-2.396-.144-2.941-.787-3.816-3.847-6.563-7.763-6.969-.639-.066-15.616-.062-16.248.004" fill-rule="evenodd" fill="#000"/></svg>