<svg xmlns="http://www.w3.org/2000/svg" width="32" height="32"><path d="M12.213.346a3.9 3.9 0 0 0-2.118 1.165c-.418.441-.65.815-.853 1.379-.135.375-.142.446-.171 1.857L9.04 6.213l-3.547.027c-3.981.03-3.787.009-3.999.426-.205.4-.099.806.283 1.089.141.105.229.113 1.399.128l1.248.016.015 10.304.016 10.304.123.399c.462 1.5 1.656 2.538 3.191 2.774.246.038 2.988.051 8.471.04 7.618-.015 8.126-.022 8.427-.112 1.362-.408 2.346-1.372 2.755-2.702l.123-.399.016-10.304.015-10.304 1.248-.016c1.17-.015 1.258-.023 1.399-.128.382-.283.488-.689.283-1.089-.212-.417-.018-.396-3.999-.426l-3.547-.027-.031-1.466c-.029-1.411-.036-1.482-.171-1.857a3.579 3.579 0 0 0-.85-1.375C21.302.877 20.628.512 19.742.342c-.546-.105-7.005-.101-7.529.004m7.26 1.628c.695.129 1.322.605 1.616 1.226l.164.347.016 1.346.016 1.347h-10.57l.016-1.347.016-1.346.164-.347c.284-.598.923-1.095 1.569-1.221.342-.067 6.637-.072 6.993-.005m6.447 15.933c-.001 6.244-.02 10.132-.053 10.33-.146.894-.864 1.61-1.789 1.787-.232.045-2.48.057-8.265.045l-7.946-.016-.306-.123c-.644-.26-1.091-.692-1.335-1.29l-.119-.293-.015-10.227-.014-10.227H25.92v10.014m-13.44-4.08c-.097.066-.22.203-.275.306-.094.176-.098.412-.098 4.823 0 4.528.002 4.642.106 4.857.28.577 1.112.599 1.427.039l.12-.213v-4.66c0-4.434-.005-4.67-.099-4.846-.149-.281-.397-.426-.728-.426-.2 0-.326.033-.453.12m6.133 0c-.096.066-.22.203-.274.306-.094.176-.099.412-.099 4.846v4.66l.12.213c.315.56 1.147.538 1.427-.039.104-.215.106-.329.106-4.857 0-4.411-.004-4.647-.098-4.823-.15-.281-.397-.426-.728-.426-.201 0-.327.033-.454.12" fill-rule="evenodd"/></svg>