<svg width="35" height="35" fill="none" xmlns="http://www.w3.org/2000/svg"><path d="M13.734.641c-3.027.414-5.825 1.71-8.175 3.786-.943.834-1.988 2.076-2.728 3.244-.416.657-1.12 2.091-1.402 2.854C.417 13.268.245 16.607.966 19.483c1.267 5.052 4.959 9.053 9.931 10.762 1.461.502 2.787.729 4.503.771 1.347.033 2.267-.04 3.42-.272 2.253-.454 4.541-1.503 6.316-2.896l.326-.256 3.325 3.322c3.582 3.578 3.557 3.557 4.165 3.56.43.001.722-.097 1.006-.341.487-.416.658-1.176.396-1.758-.09-.2-.906-1.052-3.438-3.587l-3.319-3.325.267-.35a15.542 15.542 0 0 0 3.115-7.87c.088-.877.039-2.877-.09-3.71a15.398 15.398 0 0 0-7.002-10.702c-.687-.436-2.11-1.129-2.916-1.421-.746-.27-2.08-.61-2.917-.744-.945-.151-3.295-.165-4.32-.025m3.27 2.918c4.331.481 7.991 3.059 9.853 6.941 2.296 4.787 1.215 10.554-2.663 14.206a12.245 12.245 0 0 1-13.794 2.1c-5.515-2.698-8.195-9.031-6.282-14.843a12.329 12.329 0 0 1 4.924-6.446c1.511-1.004 3.56-1.742 5.425-1.952.626-.071 1.924-.074 2.537-.006" fill-rule="evenodd" fill="#000"/></svg>