<svg xmlns="http://www.w3.org/2000/svg" width="32" height="32"><path d="M20.8.837c-3.907.304-8.19 2.257-11.68 5.325-.696.612-2.08 2.023-2.621 2.673-2.225 2.669-3.769 5.606-4.496 8.553-.617 2.497-.626 4.918-.025 7.012.171.597.492 1.399.729 1.824l.132.235.443-.896c1.719-3.473 4.794-6.327 9.065-8.413 1.182-.578 2.026-.932 3.573-1.499 2.391-.877 4.026-1.675 5.787-2.824 3.402-2.22 6.047-5.367 7.339-8.732l.19-.495-.365-.337c-1.415-1.306-3.535-2.186-5.8-2.406A17.903 17.903 0 0 0 20.8.837m9.452 5.205c-1.691 3.533-4.571 6.61-8.296 8.86-1.585.957-3.282 1.752-5.422 2.538-1.457.535-2.348.906-3.334 1.389-3.942 1.926-6.798 4.578-8.299 7.704-.342.711-.7 1.698-.655 1.801.056.126.859.801 1.359 1.142 3.44 2.347 8.586 2.282 13.622-.172 5.952-2.901 10.795-8.682 12.285-14.669.8-3.213.603-6.149-.577-8.595-.174-.359-.328-.653-.343-.653-.015 0-.168.294-.34.655" fill-rule="evenodd"/></svg>