<!-- Generated by IcoMoon.io -->
<svg version="1.1" xmlns="http://www.w3.org/2000/svg" width="34" height="32" viewBox="0 0 34 32">
<title>01</title>
<path d="M33.478 0.606c-0.799-0.807-2.099-0.807-2.898 0l-4.146 4.189c-0.195 0.197-0.195 0.517-0.001 0.714s0.511 0.198 0.706 0.001l4.146-4.189c0.41-0.414 1.077-0.414 1.488 0 0.198 0.2 0.306 0.467 0.306 0.752s-0.109 0.552-0.306 0.752l-13.978 14.125c-0.41 0.414-1.077 0.414-1.488 0-0.198-0.2-0.306-0.467-0.306-0.752 0-0.179 0.043-0.351 0.123-0.503 0.001-0.002 0.003-0.004 0.004-0.007 0.047-0.088 0.107-0.17 0.179-0.243l7.742-7.824c0.195-0.197 0.195-0.517 0.001-0.715s-0.511-0.198-0.706-0.001l-7.591 7.671c0.174-1.462 0.734-2.771 1.091-3.486 0.133-0.265 0.119-0.589-0.036-0.844-0.138-0.227-0.364-0.362-0.607-0.362h-1.172c-0.276 0-0.499 0.226-0.499 0.505s0.223 0.505 0.499 0.505h0.798c-0.426 0.904-1.006 2.405-1.11 4.047h-13.106c-0.105-1.644-0.684-3.144-1.11-4.047h4.962c0.081 0.379 0.224 0.974 0.434 1.61 0.397 1.2 1.948 1.945 2.124 2.026 0.131 0.061 0.283 0.061 0.414 0 0.175-0.081 1.726-0.826 2.124-2.026 0.21-0.636 0.352-1.231 0.433-1.61h0.78c0.276 0 0.499-0.226 0.499-0.505s-0.223-0.505-0.499-0.505h-1.189c-0.243 0-0.451 0.177-0.492 0.419-0.002 0.009-0.157 0.906-0.479 1.88-0.188 0.565-0.937 1.075-1.385 1.321-0.439-0.243-1.198-0.758-1.384-1.321-0.323-0.975-0.479-1.872-0.48-1.881-0.041-0.242-0.249-0.419-0.492-0.419h-5.688c-0.272 0-0.522 0.143-0.667 0.382-0.151 0.247-0.164 0.563-0.034 0.824 0.313 0.625 1.002 2.171 1.126 3.851h-0.56c-0.476 0-0.864 0.392-0.864 0.874v1.063c0 0.482 0.388 0.874 0.864 0.874h0.349c-0.086 0.631-0.198 1.409-0.32 2.224-0.042 0.276 0.146 0.534 0.418 0.576 0.026 0.004 0.051 0.006 0.076 0.006 0.242 0 0.455-0.179 0.493-0.429 0.132-0.879 0.253-1.717 0.341-2.376h13.515c0.247 1.836 0.7 4.743 1.35 8.656 0.202 1.213-0.117 2.428-0.875 3.335-0.67 0.802-1.583 1.244-2.571 1.244h-9.323c-0.988 0-1.901-0.442-2.571-1.244-0.758-0.907-1.076-2.122-0.874-3.335 0.187-1.129 0.361-2.19 0.516-3.155 0.044-0.275-0.14-0.535-0.412-0.58s-0.529 0.142-0.573 0.417c-0.155 0.963-0.328 2.023-0.515 3.15-0.251 1.506 0.149 3.021 1.097 4.155 0.851 1.018 2.066 1.602 3.333 1.602h9.323c1.268 0 2.482-0.584 3.333-1.602 0.948-1.134 1.347-2.649 1.097-4.155-0.61-3.674-1.046-6.456-1.299-8.291 0.333 0.213 0.714 0.32 1.095 0.32 0.525 0 1.050-0.202 1.449-0.606l13.978-14.126c0.387-0.391 0.599-0.912 0.599-1.467s-0.213-1.077-0.599-1.467zM1.184 16.744v-0.79h14.832c-0.009 0.081-0.015 0.162-0.015 0.245 0 0.187 0.025 0.37 0.071 0.546h-14.889z"></path>
<path d="M4.503 28.172c-0.158 0-0.307-0.082-0.443-0.245-0.228-0.273-0.321-0.655-0.256-1.049 0.514-3.097 0.91-5.594 1.176-7.422 0.040-0.276-0.148-0.533-0.421-0.573s-0.526 0.15-0.567 0.426c-0.265 1.821-0.66 4.311-1.173 7.401-0.115 0.688 0.060 1.37 0.478 1.87 0.325 0.388 0.753 0.602 1.205 0.602 0.276 0 0.499-0.226 0.499-0.505s-0.223-0.505-0.499-0.505z"></path>
<path d="M18.087 16.688c0.276 0 0.499-0.226 0.499-0.505s-0.224-0.505-0.499-0.505-0.499 0.226-0.499 0.505c0 0.279 0.224 0.505 0.499 0.505z"></path>
</svg>
