<!-- Generated by IcoMoon.io -->
<svg version="1.1" xmlns="http://www.w3.org/2000/svg" width="27" height="32" viewBox="0 0 27 32">
<title>02</title>
<path d="M22.882 10.133h-0.735c-0.384-0.342-0.879-0.532-1.393-0.533h-1.064v-2.133c0.141 0 0.276-0.056 0.376-0.156s0.156-0.236 0.156-0.377v-2.133c0-0.141-0.056-0.277-0.156-0.377s-0.235-0.156-0.376-0.156h-6.918v-1.067h0.532c0.423 0 0.829-0.169 1.129-0.469s0.468-0.707 0.468-1.131-0.168-0.831-0.468-1.131c-0.299-0.3-0.705-0.469-1.129-0.469h-4.257c-0.423 0-0.829 0.169-1.129 0.469s-0.468 0.707-0.468 1.131c0 0.424 0.168 0.831 0.468 1.131s0.705 0.469 1.129 0.469h0.532v1.067h-6.918c-0.141 0-0.276 0.056-0.376 0.156s-0.156 0.236-0.156 0.377v1.6h-1.596c-0.105 0-0.208 0.031-0.296 0.090s-0.156 0.142-0.196 0.239c-0.040 0.097-0.051 0.205-0.030 0.308s0.071 0.198 0.146 0.273l2.505 2.51v18.979c-0.141 0-0.276 0.056-0.376 0.156s-0.156 0.236-0.156 0.377v2.133c0 0.141 0.056 0.277 0.156 0.377s0.235 0.156 0.376 0.156h17.029c0.141 0 0.276-0.056 0.376-0.156s0.156-0.236 0.156-0.377v-2.133c0-0.141-0.056-0.277-0.156-0.377s-0.235-0.156-0.376-0.156v-2.133h1.064c0.514-0.002 1.009-0.191 1.393-0.533h0.735c0.967-0.001 1.896-0.377 2.591-1.051s1.102-1.592 1.134-2.56c0.167-0.15 0.301-0.333 0.392-0.538s0.139-0.427 0.14-0.651v-6.4c-0.001-0.225-0.048-0.446-0.14-0.651s-0.225-0.388-0.392-0.538c-0.033-0.968-0.439-1.886-1.134-2.56s-1.624-1.051-2.591-1.051zM23.403 22.51c-0.025 0.12-0.091 0.227-0.186 0.304s-0.213 0.119-0.335 0.119h-0.735c-0.384-0.342-0.879-0.532-1.393-0.533h-1.064v-8.533h1.064c0.514-0.002 1.009-0.191 1.393-0.533h0.735c0.122-0 0.241 0.042 0.335 0.119s0.16 0.185 0.186 0.304c-0.163 0.149-0.294 0.331-0.384 0.533s-0.136 0.422-0.137 0.643v6.4c0.001 0.222 0.047 0.441 0.137 0.643s0.22 0.384 0.384 0.533zM10.643 7.467v1.6h-6.918v-1.6h6.918zM18.625 13.333h-14.9v-3.2h14.9v3.2zM3.725 14.4h6.918v7.467h-6.918v-7.467zM11.707 14.4h6.918v7.467h-6.918v-7.467zM20.753 10.667c0.282 0 0.553 0.112 0.753 0.312s0.312 0.471 0.312 0.754-0.112 0.554-0.312 0.754c-0.2 0.2-0.47 0.312-0.753 0.312h-1.064v-2.133h1.064zM18.625 9.067h-6.918v-1.6h6.918v1.6zM8.514 1.6c0-0.141 0.056-0.277 0.156-0.377s0.235-0.156 0.376-0.156h4.257c0.141 0 0.277 0.056 0.376 0.156s0.156 0.236 0.156 0.377-0.056 0.277-0.156 0.377c-0.1 0.1-0.235 0.156-0.376 0.156h-4.257c-0.141 0-0.276-0.056-0.376-0.156s-0.156-0.236-0.156-0.377zM10.643 3.2h1.064v1.067h-1.064v-1.067zM3.193 5.333h15.964v1.067h-15.964v-1.067zM2.661 7.467v0.846l-0.844-0.846h0.844zM19.157 30.933h-15.964v-1.067h15.964v1.067zM3.725 28.8v-5.867h14.9v5.867h-14.9zM20.753 25.6h-1.064v-2.133h1.064c0.282 0 0.553 0.112 0.753 0.312s0.312 0.471 0.312 0.754-0.112 0.554-0.312 0.754c-0.2 0.2-0.47 0.312-0.753 0.312zM26.075 21.333c-0 0.093-0.025 0.184-0.072 0.265s-0.114 0.147-0.195 0.193c-0.081 0.047-0.148 0.114-0.195 0.195s-0.071 0.173-0.071 0.266v0.148c-0.001 0.707-0.281 1.385-0.78 1.885s-1.175 0.781-1.88 0.782h-0.076c0.101-0.348 0.101-0.718 0-1.067h0.076c0.423 0 0.829-0.169 1.129-0.469s0.468-0.707 0.468-1.131v-0.148c-0-0.094-0.025-0.185-0.071-0.266s-0.114-0.148-0.195-0.195c-0.081-0.046-0.148-0.113-0.195-0.193s-0.071-0.172-0.072-0.265v-6.4c0-0.093 0.025-0.184 0.072-0.265s0.114-0.147 0.195-0.193c0.081-0.047 0.148-0.114 0.195-0.195s0.071-0.173 0.071-0.266v-0.148c0-0.424-0.168-0.831-0.468-1.131s-0.705-0.469-1.129-0.469h-0.076c0.101-0.348 0.101-0.718 0-1.067h0.076c0.705 0.001 1.382 0.282 1.88 0.782s0.779 1.178 0.78 1.885v0.148c0 0.094 0.025 0.185 0.071 0.266s0.114 0.148 0.195 0.195c0.081 0.046 0.148 0.113 0.195 0.193s0.071 0.172 0.072 0.265v6.4z"></path>
</svg>
