<!-- Generated by IcoMoon.io -->
<svg version="1.1" xmlns="http://www.w3.org/2000/svg" width="28" height="32" viewBox="0 0 28 32">
<title>03</title>
<path d="M27.655 8.495l-2.123-2.74c-0.284-0.367-0.712-0.577-1.173-0.577h-1.753c-0.166-0.308-0.489-0.518-0.86-0.518h-1.976l-5.766-1.94c-0.136-0.046-0.274-0.079-0.415-0.101l0.285-1.438c0.058-0.291-0.016-0.589-0.202-0.819s-0.462-0.361-0.756-0.361h-1.826c-0.294 0-0.569 0.132-0.756 0.361s-0.26 0.528-0.203 0.819l0.285 1.438c-0.141 0.022-0.279 0.055-0.415 0.101l-5.766 1.941h-1.976c-0.467 0-0.912 0.225-1.192 0.602l-0.923 1.242c-0.165 0.222-0.191 0.514-0.068 0.762s0.37 0.402 0.645 0.402h0.766c0.015 0 0.030 0.007 0.039 0.020l3.172 4.35 0.266 2.145c0.029 0.237 0.229 0.411 0.46 0.411 0.019 0 0.039-0.001 0.058-0.004 0.254-0.032 0.435-0.266 0.403-0.523l-0.276-2.231 0.178-6.239h2.216l1.375 11.107c0.017 0.133 0.051 0.261 0.099 0.38h-3.176c-0.024 0-0.045-0.018-0.048-0.043l-0.136-1.1c-0.032-0.257-0.263-0.439-0.518-0.407s-0.435 0.266-0.403 0.523l0.136 1.1c0.061 0.493 0.478 0.864 0.97 0.864h0.109v2.686h-0.12c-0.488 0-0.894 0.353-0.966 0.84l-1.296 8.724c-0.064 0.433 0.061 0.873 0.344 1.205s0.695 0.523 1.129 0.523h1.133c0.256 0 0.464-0.21 0.464-0.469s-0.208-0.469-0.464-0.469h-1.133c-0.166 0-0.317-0.070-0.425-0.197s-0.154-0.288-0.13-0.454l0.072-0.483h13.969l0.072 0.483c0.025 0.166-0.021 0.327-0.13 0.454s-0.259 0.197-0.425 0.197h-10.011c-0.257 0-0.464 0.21-0.464 0.469s0.208 0.469 0.464 0.469h10.011c0.434 0 0.846-0.191 1.129-0.523s0.409-0.771 0.345-1.205l-1.296-8.724c-0.072-0.487-0.479-0.84-0.966-0.84h-0.12v-2.687h0.109c0.492 0 0.909-0.371 0.97-0.864l0.855-6.902h1.505c0.193 0 0.381-0.037 0.56-0.11l0.865-0.354c0.673-0.275 1.444-0.056 1.874 0.534 0.28 0.384 0.383 0.871 0.281 1.337l-1.51 6.937c-0.005 0.023-0.024 0.038-0.047 0.038h-1.311c-0.539 0-0.977 0.442-0.977 0.986v1.035c0 0.544 0.438 0.986 0.977 0.986h2.595c0.692 0 1.288-0.475 1.449-1.154l2.331-9.841c0.179-0.757 0.010-1.543-0.465-2.155zM21.794 5.646v1.2c0 0.276-0.196 0.511-0.465 0.558l-1.481 0.26 0.256-2.067h1.641c0.027 0 0.049 0.022 0.049 0.049zM11.052 0.955c0.014-0.018 0.032-0.018 0.037-0.018h1.826c0.006 0 0.023 0 0.038 0.018s0.011 0.035 0.010 0.041l-0.315 1.592h-1.29l-0.315-1.592c-0.001-0.006-0.004-0.023 0.010-0.041zM1.488 6.73h-0.35l0.674-0.907c0.105-0.142 0.273-0.227 0.449-0.227h2.599l-0.14 4.888-2.444-3.353c-0.183-0.252-0.478-0.402-0.787-0.402zM10.295 3.608c0.162-0.055 0.331-0.082 0.502-0.082h2.411c0.171 0 0.34 0.028 0.502 0.082l3.123 1.051h-9.661l3.123-1.051zM10.3 16.588l-1.361-10.991h6.127l-1.361 10.991c-0.035 0.283-0.275 0.496-0.557 0.496h-2.292c-0.282 0-0.522-0.213-0.557-0.496zM6.243 21.688c0.004-0.024 0.024-0.042 0.048-0.042h3.202c-0.044 0.109-0.078 0.223-0.095 0.343l-1.040 7.002h-3.199l1.085-7.304zM13.726 22.128l1.020 6.863h-5.45l1.020-6.863c0.041-0.275 0.28-0.483 0.555-0.483h2.3c0.275 0 0.514 0.207 0.555 0.483zM17.762 21.688l1.085 7.304h-3.163l-1.040-7.002c-0.018-0.12-0.051-0.235-0.095-0.344h3.166c0.024-0 0.044 0.018 0.048 0.042zM16.666 20.708h-9.327v-2.686h9.327v2.686zM17.752 17.041c-0.003 0.024-0.024 0.043-0.048 0.043h-3.176c0.048-0.12 0.083-0.247 0.099-0.38l1.375-11.107h3.166l-1.417 11.445zM27.218 10.432l-2.331 9.841c-0.061 0.256-0.285 0.435-0.546 0.435h-2.596c-0.027 0-0.049-0.022-0.049-0.049v-1.035c0-0.027 0.022-0.049 0.049-0.049h1.311c0.455 0 0.857-0.326 0.954-0.775l1.51-6.936c0.159-0.729-0.002-1.493-0.441-2.094-0.683-0.936-1.904-1.284-2.971-0.847l-0.865 0.354c-0.067 0.028-0.138 0.042-0.211 0.042h-1.389l0.084-0.682 1.76-0.309c0.715-0.126 1.235-0.749 1.235-1.482v-0.731h1.636c0.174 0 0.335 0.079 0.442 0.218l2.123 2.74c0.3 0.387 0.407 0.882 0.294 1.36z"></path>
</svg>
