<!-- Generated by IcoMoon.io -->
<svg version="1.1" xmlns="http://www.w3.org/2000/svg" width="985" height="1024" viewBox="0 0 985 1024">
<title>08</title>
<g id="icomoon-ignore">
</g>
<path d="M17.146 443.733h238.929c9.43 0 17.071-7.64 17.071-17.070v-17.063h34.132v17.063c0 9.43 7.641 17.070 17.063 17.070h20.804l13.843 55.344c1.907 7.593 8.727 12.922 16.555 12.922h68.266c7.828 0 14.656-5.329 16.555-12.922l13.843-55.344h20.804c9.422 0 17.063-7.64 17.063-17.070v-85.328c6.499 0.031 12.46-3.625 15.366-9.438l29.32-58.836h74.782v580.272h-113.821c28.437-18.86 45.539-50.704 45.555-84.821v-119.984c0-9.421-7.641-17.062-17.071-17.062h-273.061c-9.43 0-17.071 7.641-17.071 17.062h-85.335c-9.422 0-17.062 7.641-17.062 17.071v102.399c0 9.429 7.64 17.070 17.062 17.070h86.804c4.609 27.875 20.571 52.593 44.086 68.266h-130.883c-9.43 0-17.070 7.64-17.070 17.062v136.539c0 9.421 7.64 17.062 17.070 17.062h785.061c9.43 0 17.070-7.641 17.070-17.062v-989.865c0-9.43-7.64-17.070-17.070-17.070h-785.061c-9.43 0-17.070 7.641-17.070 17.070v238.93c0 9.429 7.64 17.070 17.070 17.070h91.852l29.406 58.828c2.891 5.781 8.805 9.438 15.273 9.438v34.133h-34.132v-17.071c0-9.422-7.641-17.062-17.071-17.062h-238.929c-9.43 0-17.070 7.64-17.070 17.062v68.266c0 9.43 7.641 17.070 17.070 17.070v0zM187.809 682.662h68.266v68.274h-68.266v-68.274zM290.208 767.999v-102.399h238.937v102.913c-0.047 37.399-30.352 67.703-67.758 67.75h-103.421c-37.398-0.047-67.711-30.351-67.75-67.75v-0.515h-0.008zM430.481 477.866h-41.608l-8.532-34.133h58.671l-8.532 34.133zM665.676 273.062h273.068v580.272h-273.068v-580.272zM938.745 989.865h-750.935v-102.397h750.935v102.397zM187.809 34.133h750.935v204.796h-750.935v-204.796zM300.755 273.062h217.842l-17.070 34.141h-183.703l-17.070-34.141zM477.942 341.335v68.265h-136.532v-68.265h136.532zM34.209 375.468h204.805v34.132h-204.805v-34.132z"></path>
<path d="M409.683 204.797c37.704 0 68.266-30.563 68.266-68.266s-30.562-68.266-68.266-68.266c-37.703 0-68.266 30.563-68.266 68.266s30.563 68.266 68.266 68.266zM409.683 102.399c18.852 0 34.133 15.281 34.133 34.133s-15.281 34.133-34.133 34.133c-18.851 0-34.133-15.281-34.133-34.133s15.282-34.133 34.133-34.133z"></path>
<path d="M512.076 119.468h34.133v34.133h-34.133v-34.133z"></path>
<path d="M580.354 119.468h34.133v34.133h-34.133v-34.133z"></path>
<path d="M785.14 665.601h34.133v136.532h-34.133v-136.532z"></path>
<path d="M716.886 665.601h34.133v136.532h-34.133v-136.532z"></path>
<path d="M853.417 665.601h34.133v136.532h-34.133v-136.532z"></path>
</svg>
