<!-- Generated by IcoMoon.io -->
<svg version="1.1" xmlns="http://www.w3.org/2000/svg" width="32" height="32" viewBox="0 0 32 32">
<title>05</title>
<path d="M11.333 9.333c-0.245 0-0.48-0.135-0.597-0.368l-4-8c-0.164-0.329-0.031-0.731 0.299-0.895 0.331-0.165 0.729-0.032 0.895 0.299l4 8c0.165 0.329 0.031 0.729-0.299 0.895-0.095 0.047-0.196 0.069-0.297 0.069z"></path>
<path d="M20.667 9.333c-0.1 0-0.201-0.023-0.297-0.071-0.329-0.165-0.463-0.565-0.299-0.895l4-8c0.165-0.331 0.565-0.463 0.895-0.299s0.463 0.565 0.299 0.895l-4 8c-0.119 0.235-0.353 0.369-0.597 0.369z"></path>
<path d="M26 1.333h-20c-0.368 0-0.667-0.299-0.667-0.667s0.299-0.667 0.667-0.667h20c0.368 0 0.667 0.299 0.667 0.667s-0.299 0.667-0.667 0.667z"></path>
<path d="M23.333 13.333h-14.667c-1.103 0-2-0.897-2-2v-1.333c0-1.103 0.897-2 2-2h14.667c1.103 0 2 0.897 2 2v1.333c0 1.103-0.897 2-2 2zM8.667 9.333c-0.368 0-0.667 0.299-0.667 0.667v1.333c0 0.368 0.299 0.667 0.667 0.667h14.667c0.368 0 0.667-0.299 0.667-0.667v-1.333c0-0.368-0.299-0.667-0.667-0.667h-14.667z"></path>
<path d="M23.333 32h-14.667c-2.573 0-4.667-2.093-4.667-4.667 0-0.635 0.125-1.251 0.372-1.829l5.005-13.076c0.132-0.344 0.52-0.513 0.861-0.384 0.344 0.132 0.516 0.517 0.384 0.861l-5.015 13.1c-0.185 0.435-0.275 0.875-0.275 1.328 0 1.837 1.496 3.333 3.333 3.333h14.667c1.837 0 3.333-1.496 3.333-3.333 0-0.453-0.089-0.893-0.265-1.305l-5.024-13.123c-0.132-0.344 0.040-0.729 0.384-0.861 0.343-0.131 0.728 0.039 0.861 0.384l5.015 13.1c0.237 0.556 0.363 1.171 0.363 1.805 0 2.573-2.093 4.667-4.667 4.667z"></path>
<path d="M20.163 22c-1.311 0-1.996-0.657-2.547-1.185-0.492-0.473-0.848-0.815-1.623-0.815-0.773 0-1.128 0.341-1.62 0.815-0.551 0.528-1.235 1.185-2.544 1.185s-1.993-0.657-2.543-1.187c-0.492-0.472-0.848-0.813-1.62-0.813-0.368 0-0.667-0.299-0.667-0.667s0.299-0.667 0.667-0.667c1.309 0 1.993 0.657 2.543 1.187 0.492 0.472 0.848 0.813 1.62 0.813s1.128-0.341 1.62-0.813c0.549-0.528 1.235-1.187 2.544-1.187 1.311 0 1.996 0.657 2.547 1.185 0.493 0.472 0.849 0.815 1.623 0.815s1.131-0.341 1.624-0.815c0.551-0.528 1.236-1.185 2.547-1.185 0.368 0 0.667 0.299 0.667 0.667s-0.299 0.667-0.667 0.667c-0.775 0-1.131 0.341-1.624 0.815-0.551 0.528-1.236 1.185-2.547 1.185z"></path>
</svg>
