<!-- Generated by IcoMoon.io -->
<svg version="1.1" xmlns="http://www.w3.org/2000/svg" width="32" height="32" viewBox="0 0 32 32">
<title>06</title>
<path d="M22.133 21.867h-1.067v-1.067h1.6c0.295 0 0.533-0.239 0.533-0.533v-2.133c0-0.295-0.239-0.533-0.533-0.533h-1.067v-12.267c0-0.295-0.239-0.533-0.533-0.533h-1.6v-3.733h2.133v-1.067h-11.733v1.067h2.133v3.733h-1.6c-0.295 0-0.533 0.239-0.533 0.533v12.267h-1.067c-0.295 0-0.533 0.239-0.533 0.533v2.133c0 0.295 0.239 0.533 0.533 0.533h1.6v10.133c0 0.589 0.478 1.067 1.067 1.067h8.533c0.589 0 1.067-0.478 1.067-1.067v-1.6h1.067c0.884 0 1.6-0.716 1.6-1.6v-4.267c0-0.884-0.716-1.6-1.6-1.6zM13.067 1.067h5.333v3.733h-5.333v-3.733zM13.067 5.867h5.333v9.6h-5.333v-9.6zM20 30.933h-8.533v-4.8h8.533v4.8zM20 25.067h-8.533v-4.267h8.533v4.267zM9.333 19.733v-1.067h1.067c0.295 0 0.533-0.239 0.533-0.533v-12.267h1.067v10.133c0 0.295 0.239 0.533 0.533 0.533h6.4c0.295 0 0.533-0.239 0.533-0.533v-10.133h1.067v12.267c0 0.295 0.239 0.533 0.533 0.533h1.067v1.067h-12.8zM22.667 27.733c0 0.295-0.239 0.533-0.533 0.533h-1.067v-5.333h1.067c0.295 0 0.533 0.239 0.533 0.533v4.267z"></path>
<path d="M16.267 6.933h-1.067v1.067h1.067v-1.067z"></path>
<path d="M16.267 9.067h-1.067v1.067h1.067v-1.067z"></path>
<path d="M16.267 11.2h-1.067v1.067h1.067v-1.067z"></path>
<path d="M16.267 13.333h-1.067v1.067h1.067v-1.067z"></path>
</svg>
