<!-- Generated by IcoMoon.io -->
<svg version="1.1" xmlns="http://www.w3.org/2000/svg" width="32" height="32" viewBox="0 0 32 32">
<title>07</title>
<path d="M31.375 12.952h-5.125v-1.303c0-0.34-0.28-0.616-0.625-0.616h-13.5c-0.345 0-0.625 0.276-0.625 0.616s0.28 0.616 0.625 0.616h12.875v4.72c0 4.146-2.247 8-5.876 10.097h-11.998c-3.629-2.097-5.876-5.951-5.876-10.097v-4.72h4.188c0.345 0 0.625-0.276 0.625-0.616s-0.28-0.616-0.625-0.616h-4.813c-0.345 0-0.625 0.276-0.625 0.616v5.336c0 2.327 0.635 4.609 1.836 6.599 0.81 1.342 1.861 2.527 3.092 3.498h-4.304c-0.345 0-0.625 0.276-0.625 0.616 0 2.241 1.85 4.063 4.125 4.063h19.5c2.275 0 4.125-1.823 4.125-4.063 0-0.34-0.28-0.616-0.625-0.616h-5.804c1.133-0.894 2.113-1.969 2.894-3.181h1.764c3.32 0 6.021-2.661 6.021-5.931v-4.402c0-0.34-0.28-0.616-0.625-0.616zM26.432 28.313c-0.286 1.267-1.436 2.216-2.807 2.216h-19.5c-1.371 0-2.52-0.95-2.807-2.216h25.113zM26.25 16.985v-0.339h2v1.324c0 1.233-1.019 2.237-2.271 2.237h-0.142c0.273-1.047 0.413-2.129 0.413-3.222zM30.75 17.97c0 2.591-2.14 4.7-4.771 4.7h-1.064c0.2-0.401 0.378-0.813 0.534-1.231h0.53c1.941 0 3.521-1.556 3.521-3.468v-1.939c0-0.34-0.28-0.616-0.625-0.616h-2.625v-1.231h4.5v3.786z"></path>
<path d="M13.722 3.646l-0.325-0.402c-0.477-0.59-0.478-1.415-0.002-2.007 0.215-0.266 0.169-0.654-0.101-0.865s-0.664-0.167-0.878 0.1c-0.84 1.043-0.839 2.498 0.003 3.539l0.325 0.402c0.624 0.771 0.625 1.85 0.002 2.622l-0.333 0.414c-0.215 0.266-0.169 0.654 0.101 0.865 0.115 0.090 0.252 0.133 0.388 0.133 0.184 0 0.367-0.080 0.49-0.233l0.333-0.414c0.986-1.224 0.985-2.933-0.004-4.155z"></path>
<path d="M17.186 5.030l-0.325-0.402c-0.477-0.59-0.478-1.416-0.002-2.007 0.215-0.266 0.169-0.654-0.101-0.865s-0.663-0.167-0.878 0.099c-0.84 1.043-0.839 2.498 0.003 3.539l0.325 0.402c0.624 0.772 0.625 1.85 0.002 2.622l-0.333 0.414c-0.215 0.266-0.169 0.654 0.101 0.865 0.115 0.090 0.252 0.133 0.388 0.133 0.184 0 0.367-0.080 0.49-0.233l0.333-0.414c0.986-1.224 0.985-2.933-0.003-4.155z"></path>
<path d="M10.257 5.030l-0.325-0.402c-0.477-0.59-0.478-1.416-0.002-2.007 0.215-0.266 0.169-0.654-0.101-0.865s-0.664-0.167-0.878 0.099c-0.84 1.043-0.839 2.498 0.003 3.539l0.325 0.402c0.624 0.772 0.625 1.85 0.002 2.622l-0.333 0.414c-0.215 0.266-0.169 0.654 0.101 0.865 0.115 0.090 0.252 0.133 0.388 0.133 0.184 0 0.367-0.080 0.49-0.233l0.333-0.414c0.986-1.224 0.985-2.933-0.004-4.155z"></path>
<path d="M9.392 11.214c-0.116-0.114-0.277-0.18-0.442-0.18s-0.326 0.066-0.442 0.18c-0.116 0.115-0.183 0.273-0.183 0.435s0.067 0.321 0.183 0.436c0.116 0.114 0.277 0.18 0.442 0.18s0.326-0.065 0.442-0.18c0.117-0.115 0.183-0.273 0.183-0.436s-0.066-0.321-0.183-0.435z"></path>
<path d="M22.625 16.369c-0.345 0-0.625 0.276-0.625 0.616 0 2.285-0.941 4.531-2.582 6.162-0.243 0.241-0.241 0.631 0.004 0.871 0.122 0.119 0.281 0.178 0.44 0.178 0.161 0 0.322-0.061 0.444-0.182 1.871-1.859 2.944-4.421 2.944-7.029 0-0.34-0.28-0.616-0.625-0.616z"></path>
<path d="M18.368 24.818c-0.17-0.296-0.551-0.401-0.851-0.234l-0.014 0.008c-0.301 0.167-0.407 0.543-0.237 0.839 0.115 0.201 0.327 0.313 0.545 0.313 0.104 0 0.21-0.026 0.307-0.080l0.014-0.008c0.301-0.167 0.407-0.543 0.237-0.839z"></path>
</svg>
