<!-- Generated by IcoMoon.io -->
<svg version="1.1" xmlns="http://www.w3.org/2000/svg" width="32" height="32" viewBox="0 0 32 32">
<title>08</title>
<path d="M25.941 26.641h-0.741v-17.832c0-0.030-0.002-0.060-0.006-0.089 0.624-0.754 1-1.721 1-2.774v-4.708c0.289-0.055 0.508-0.309 0.508-0.614 0-0.345-0.28-0.625-0.625-0.625h-20.153c-0.345 0-0.625 0.28-0.625 0.625 0 0.305 0.219 0.559 0.508 0.614v4.708c0 1.050 0.373 2.014 0.994 2.766v17.928h-0.741c-1.050 0-1.905 0.854-1.905 1.905v2.829c0 0.345 0.28 0.625 0.625 0.625h22.441c0.345 0 0.625-0.28 0.625-0.625v-2.829c0-1.050-0.854-1.905-1.905-1.905zM24.944 1.25v4.697c0 1.712-1.393 3.105-3.105 3.105h-11.678c-1.712 0-3.105-1.393-3.105-3.105v-4.697h17.888zM15.061 12.814h1.878v1.358h-1.878v-1.358zM12.888 11.564v-1.262h6.225v1.262h-6.224zM8.050 9.755c0.626 0.348 1.345 0.547 2.111 0.547h1.477v1.887c0 0.345 0.28 0.625 0.625 0.625h1.548v1.983c0 0.345 0.28 0.625 0.625 0.625h3.128c0.345 0 0.625-0.28 0.625-0.625v-1.983h1.548c0.345 0 0.625-0.28 0.625-0.625v-1.887h1.477c0.765 0 1.485-0.198 2.111-0.547v16.886h-4.276c0.218-0.372 0.343-0.806 0.343-1.268v-0.325h1.652c0.345 0 0.625-0.28 0.625-0.625v-3.051c0-0.345-0.28-0.625-0.625-0.625h-1.652v-0.497c0-0.345-0.28-0.625-0.625-0.625h-6.766c-0.345 0-0.625 0.28-0.625 0.625v5.123c0 0.462 0.125 0.895 0.343 1.268h-4.294v-16.886zM13.252 25.374v-4.498h5.516v4.498c0 0.699-0.569 1.268-1.268 1.268h-2.981c-0.699 0-1.268-0.569-1.268-1.268zM20.017 21.998h1.027v1.801h-1.027v-1.801zM26.596 30.75h-21.191v-2.204c0-0.361 0.294-0.655 0.655-0.655h19.881c0.361 0 0.655 0.294 0.655 0.655v2.204z"></path>
<path d="M10.287 7.514c1.033 0 1.874-0.84 1.874-1.874s-0.841-1.874-1.874-1.874c-1.033 0-1.874 0.84-1.874 1.874s0.841 1.874 1.874 1.874zM10.287 5.017c0.344 0 0.624 0.28 0.624 0.624s-0.28 0.624-0.624 0.624c-0.344 0-0.624-0.28-0.624-0.624s0.28-0.624 0.624-0.624z"></path>
<path d="M19.356 5.149h3.606c0.345 0 0.625-0.28 0.625-0.625s-0.28-0.625-0.625-0.625h-3.606c-0.345 0-0.625 0.28-0.625 0.625s0.28 0.625 0.625 0.625z"></path>
<path d="M19.356 7.383h3.606c0.345 0 0.625-0.28 0.625-0.625s-0.28-0.625-0.625-0.625h-3.606c-0.345 0-0.625 0.28-0.625 0.625s0.28 0.625 0.625 0.625z"></path>
</svg>
